<svg width="10" height="10" viewBox="0 0 10 10" fill="none" xmlns="http://www.w3.org/2000/svg">
<g clip-path="url(#clip0_58_1075)">
<path d="M5 7.91647H7.91667" stroke="#1A1F36" stroke-width="0.75" stroke-linecap="round" stroke-linejoin="round"/>
<path d="M5.83333 2.08313L7.08333 3.33313" stroke="#1A1F36" stroke-width="0.75" stroke-linecap="round" stroke-linejoin="round"/>
<path d="M8.02362 2.63781C8.22189 2.43959 8.33329 2.17073 8.33333 1.89037C8.33336 1.61001 8.22203 1.34111 8.02381 1.14284C7.82559 0.944572 7.55673 0.833165 7.27637 0.83313C6.99601 0.833095 6.72712 0.944434 6.52886 1.14265L1.52406 6.14864C1.43699 6.23546 1.3726 6.34235 1.33656 6.4599L0.841179 8.09194C0.831487 8.12437 0.830755 8.15882 0.83906 8.19163C0.847366 8.22445 0.864399 8.2544 0.888353 8.27832C0.912307 8.30223 0.942287 8.31922 0.975114 8.32747C1.00794 8.33572 1.04239 8.33494 1.07481 8.32519L2.7072 7.83018C2.82464 7.79446 2.93151 7.73046 3.01845 7.6438L5.52103 5.14081L8.02362 2.63781Z" stroke="#1A1F36" stroke-width="0.75" stroke-linecap="round" stroke-linejoin="round"/>
</g>
<defs>
<clipPath id="clip0_58_1075">
<rect width="10" height="10" fill="white"/>
</clipPath>
</defs>
</svg>
