<svg width="30" height="30" viewBox="0 0 30 30" fill="none" xmlns="http://www.w3.org/2000/svg">
<rect width="29.6892" height="29.6903" rx="5" fill="#EEE9FE"/>
<g clip-path="url(#clip0_60_311)">
<path d="M16.8446 8.17847H12.8446C12.4765 8.17847 12.178 8.47694 12.178 8.84513V10.1785C12.178 10.5467 12.4765 10.8451 12.8446 10.8451H16.8446C17.2128 10.8451 17.5113 10.5467 17.5113 10.1785V8.84513C17.5113 8.47694 17.2128 8.17847 16.8446 8.17847Z" stroke="#8023FF" stroke-linecap="round" stroke-linejoin="round"/>
<path d="M17.5113 9.51181H18.8446C19.1982 9.51181 19.5374 9.65229 19.7874 9.90233C20.0375 10.1524 20.178 10.4915 20.178 10.8451V20.1785C20.178 20.5321 20.0375 20.8712 19.7874 21.1213C19.5374 21.3713 19.1982 21.5118 18.8446 21.5118H10.8446C10.491 21.5118 10.1519 21.3713 9.90182 21.1213C9.65177 20.8712 9.51129 20.5321 9.51129 20.1785V10.8451C9.51129 10.4915 9.65177 10.1524 9.90182 9.90233C10.1519 9.65229 10.491 9.51181 10.8446 9.51181H12.178" stroke="#8023FF" stroke-linecap="round" stroke-linejoin="round"/>
<path d="M14.8446 14.1785H17.5113" stroke="#8023FF" stroke-linecap="round" stroke-linejoin="round"/>
<path d="M14.8446 17.5118H17.5113" stroke="#8023FF" stroke-linecap="round" stroke-linejoin="round"/>
<path d="M12.178 14.1785H12.1846" stroke="#8023FF" stroke-linecap="round" stroke-linejoin="round"/>
<path d="M12.178 17.5118H12.1846" stroke="#8023FF" stroke-linecap="round" stroke-linejoin="round"/>
</g>
<defs>
<clipPath id="clip0_60_311">
<rect width="16" height="16" fill="white" transform="translate(6.84464 6.84514)"/>
</clipPath>
</defs>
</svg>
