<svg width="30" height="30" viewBox="0 0 30 30" fill="none" xmlns="http://www.w3.org/2000/svg">
<rect width="29.2672" height="29.2674" rx="5" fill="#CBF4C9"/>
<path d="M21.1676 13.3004C21.4721 14.7946 21.2551 16.348 20.5528 17.7016C19.8506 19.0551 18.7055 20.1271 17.3086 20.7386C15.9117 21.3501 14.3474 21.4642 12.8765 21.0619C11.4056 20.6597 10.1171 19.7653 9.2258 18.528C8.33452 17.2907 7.89436 15.7852 7.97872 14.2626C8.06308 12.74 8.66686 11.2924 9.68938 10.1611C10.7119 9.02986 12.0913 8.28331 13.5977 8.04599C15.104 7.80867 16.6461 8.09493 17.9669 8.85702" stroke="#0E6245" stroke-linecap="round" stroke-linejoin="round"/>
<path d="M12.6337 13.967L14.6337 15.967L21.3003 9.30037" stroke="#0E6245" stroke-linecap="round" stroke-linejoin="round"/>
</svg>
