<svg width="16" height="16" viewBox="0 0 16 16" fill="none" xmlns="http://www.w3.org/2000/svg">
<path d="M13.3333 7.33333V11.3333" stroke="#B83134" stroke-linecap="round" stroke-linejoin="round"/>
<path d="M13.3333 8.66667H14.6667" stroke="#B83134" stroke-linecap="round" stroke-linejoin="round"/>
<path d="M2 14V12.6667C2 11.9594 2.28095 11.2811 2.78105 10.781C3.28115 10.281 3.95942 10 4.66667 10H8.66667C9.15366 9.9999 9.63138 10.1332 10.048 10.3853" stroke="#B83134" stroke-linecap="round" stroke-linejoin="round"/>
<path d="M6.66667 7.33333C8.13943 7.33333 9.33333 6.13943 9.33333 4.66667C9.33333 3.19391 8.13943 2 6.66667 2C5.19391 2 4 3.19391 4 4.66667C4 6.13943 5.19391 7.33333 6.66667 7.33333Z" stroke="#B83134" stroke-linecap="round" stroke-linejoin="round"/>
<path d="M13.3333 14C14.0697 14 14.6667 13.403 14.6667 12.6667C14.6667 11.9303 14.0697 11.3333 13.3333 11.3333C12.597 11.3333 12 11.9303 12 12.6667C12 13.403 12.597 14 13.3333 14Z" stroke="#B83134" stroke-linecap="round" stroke-linejoin="round"/>
</svg>
