<svg width="306" height="314" viewBox="0 0 306 314" fill="none" xmlns="http://www.w3.org/2000/svg">
<path d="M71.3429 5.15078C74.5464 1.85715 78.9391 0 83.5258 0H288.388C297.79 0 305.411 7.64696 305.411 17.08V228.547C305.411 233.005 303.674 237.286 300.571 240.476L236.573 306.274C231.768 311.214 225.179 314 218.299 314H42.5574C19.0536 314 0 294.883 0 271.3V88.9296C0 82.2429 2.60546 75.8213 7.26003 71.0358L71.3429 5.15078Z" fill="#8B0836"/>
<path d="M205.676 34.0482C206.616 34.0482 207.378 34.8129 207.378 35.7562V157.184C207.378 158.127 206.616 158.892 205.676 158.892H176.355C162.252 158.892 150.82 147.421 150.82 133.272V35.7562C150.82 34.8129 151.582 34.0482 152.523 34.0482H205.676Z" fill="#FCF9E8"/>
<path d="M269.774 34.0482C270.714 34.0482 271.476 34.8129 271.476 35.7562V89.0872C271.476 90.0305 270.714 90.7952 269.774 90.7952H240.453C226.351 90.7952 214.919 79.3247 214.919 65.1752V35.7562C214.919 34.8129 215.681 34.0482 216.621 34.0482H269.774Z" fill="#FCF9E8"/>
<path d="M141.577 34.0482C142.517 34.0482 143.279 34.8129 143.279 35.7562V217.714C143.279 218.657 142.517 219.422 141.577 219.422H137.791C109.586 219.422 86.7216 196.481 86.7216 168.182V35.7562C86.7216 34.8129 87.4838 34.0482 88.4239 34.0482H141.577Z" fill="#FCF9E8"/>
</svg>
